<svg width="16" height="17" viewBox="0 0 16 17" fill="none" xmlns="http://www.w3.org/2000/svg">
<path d="M14.6667 10.5C14.6667 13.08 12.58 15.1667 10 15.1667L10.7 14" stroke="#282828" stroke-linecap="round" stroke-linejoin="round"/>
<path d="M1.33325 6.50004C1.33325 3.92004 3.41992 1.83337 5.99992 1.83337L5.29992 3.00004" stroke="#282828" stroke-linecap="round" stroke-linejoin="round"/>
<path d="M14.0195 2.48159C14.0773 2.539 14.1573 2.69159 14.1659 3.20671H8.50076C8.50936 2.69159 8.58937 2.539 8.64722 2.48159C8.70979 2.41949 8.88214 2.33337 9.48 2.33337H13.1867C13.7845 2.33337 13.9569 2.41949 14.0195 2.48159Z" fill="#282828" stroke="#282828"/>
<path d="M8.5 5.37329V4.87329H14.1667V5.37329V6.03329C14.1667 6.62372 14.0806 6.791 14.0195 6.85174C13.9569 6.91384 13.7845 6.99996 13.1867 6.99996H9.48C8.88214 6.99996 8.70979 6.91384 8.64722 6.85174C8.58602 6.791 8.5 6.62372 8.5 6.03329V5.37329Z" fill="#282828" stroke="#282828"/>
<path d="M7.3527 10.1482C7.41054 10.2056 7.49056 10.3582 7.49916 10.8733H1.83401C1.84261 10.3582 1.92263 10.2056 1.98047 10.1482C2.04304 10.0861 2.2154 10 2.81325 10H6.51992C7.11777 10 7.29013 10.0861 7.3527 10.1482Z" fill="#282828" stroke="#282828"/>
<path d="M1.66659 12.04C1.47992 12.04 1.33325 12.1867 1.33325 12.3734V13.04V13.7C1.33325 14.8734 1.62659 15.1667 2.81325 15.1667H6.51992C7.70658 15.1667 7.99992 14.8734 7.99992 13.7V13.04V12.3734C7.99992 12.1867 7.85325 12.04 7.66658 12.04H1.66659Z" fill="#282828"/>
</svg>
