<svg width="10" height="17" viewBox="0 0 10 17" fill="none" xmlns="http://www.w3.org/2000/svg">
<path d="M0.132812 5.21094C0.132812 4.27344 0.367188 3.44922 0.835938 2.73828C1.30469 2.01953 1.92188 1.46094 2.6875 1.0625C3.45312 0.65625 4.28516 0.453125 5.18359 0.453125C5.90234 0.453125 6.63281 0.601563 7.375 0.898438C8.125 1.19531 8.83203 1.66797 9.49609 2.31641L7.9375 5.22266C7.46875 4.78516 7.00391 4.47266 6.54297 4.28516C6.08984 4.08984 5.66797 3.99219 5.27734 3.99219C4.73828 3.99219 4.28906 4.12109 3.92969 4.37891C3.57812 4.62891 3.40234 4.91406 3.40234 5.23438C3.40234 5.54688 3.51953 5.82812 3.75391 6.07812C3.98828 6.32812 4.28125 6.58203 4.63281 6.83984C4.98438 7.09766 5.33203 7.40234 5.67578 7.75391C6.02734 8.09766 6.32031 8.52344 6.55469 9.03125C6.78906 9.53906 6.90625 10.168 6.90625 10.918V11.1523H3.51953V10.9414C3.51953 10.4727 3.4375 10.0938 3.27344 9.80469C3.10938 9.50781 2.89844 9.25781 2.64062 9.05469C2.38281 8.84375 2.10938 8.64453 1.82031 8.45703C1.53906 8.26172 1.26953 8.03516 1.01172 7.77734C0.753906 7.51172 0.542969 7.17578 0.378906 6.76953C0.214844 6.36328 0.132812 5.84375 0.132812 5.21094ZM2.93359 14.832C2.93359 14.207 3.15625 13.6914 3.60156 13.2852C4.04688 12.8789 4.58203 12.6758 5.20703 12.6758C5.83203 12.6758 6.36328 12.8789 6.80078 13.2852C7.24609 13.6914 7.46875 14.207 7.46875 14.832C7.46875 15.4492 7.24609 15.9648 6.80078 16.3789C6.36328 16.7852 5.83203 16.9883 5.20703 16.9883C4.56641 16.9883 4.02734 16.7852 3.58984 16.3789C3.15234 15.9648 2.93359 15.4492 2.93359 14.832Z" fill="white"/>
</svg>
