<svg width="18" height="19" viewBox="0 0 18 19" fill="none" xmlns="http://www.w3.org/2000/svg">
<path d="M15.3151 9.77751C15.9676 10.04 16.3726 10.8125 16.2226 11.495L15.9151 12.89C15.3826 15.29 13.5001 17 10.7851 17H7.21505C4.50005 17 2.61755 15.29 2.08505 12.89L1.77755 11.495C1.62755 10.8125 2.03254 10.04 2.68504 9.77751L3.75005 9.35L7.88256 7.69251C8.60256 7.40751 9.39755 7.40751 10.1175 7.69251L14.2501 9.35L15.3151 9.77751Z" stroke="#282828" stroke-opacity="0.9" stroke-width="1.3" stroke-linecap="round" stroke-linejoin="round"/>
<path d="M9 17V8" stroke="#282828" stroke-opacity="0.9" stroke-width="1.3" stroke-linecap="round" stroke-linejoin="round"/>
<path d="M14.25 6.5V9.34999L10.1175 7.6925C9.39749 7.4075 8.60251 7.4075 7.88251 7.6925L3.75 9.34999V6.5C3.75 5.2625 4.7625 4.25 6 4.25H12C13.2375 4.25 14.25 5.2625 14.25 6.5Z" stroke="#282828" stroke-opacity="0.9" stroke-width="1.3" stroke-linecap="round" stroke-linejoin="round"/>
<path d="M10.875 4.25H7.125V2.75C7.125 2.3375 7.4625 2 7.875 2H10.125C10.5375 2 10.875 2.3375 10.875 2.75V4.25Z" stroke="#282828" stroke-opacity="0.9" stroke-width="1.3" stroke-linecap="round" stroke-linejoin="round"/>
</svg>
