<svg width="16" height="17" viewBox="0 0 16 17" fill="none" xmlns="http://www.w3.org/2000/svg">
<path d="M12.3201 8.66667C12.5067 8.66667 12.6667 8.50667 12.6534 8.32C12.4734 5.9 10.4601 4 8.00006 4C5.54006 4 3.52673 5.9 3.34673 8.32C3.33339 8.50667 3.49339 8.66667 3.68006 8.66667H12.3201Z" fill="#28A745"/>
<path d="M14.6667 9.16663H14.6134C14.2467 9.16663 13.9467 8.86663 13.9467 8.49996C13.9467 8.13329 14.2467 7.83329 14.6134 7.83329C14.9801 7.83329 15.3067 8.13329 15.3067 8.49996C15.3067 8.86663 15.0334 9.16663 14.6667 9.16663ZM1.38675 9.16663H1.33341C0.966748 9.16663 0.666748 8.86663 0.666748 8.49996C0.666748 8.13329 0.966748 7.83329 1.33341 7.83329C1.70008 7.83329 2.02675 8.13329 2.02675 8.49996C2.02675 8.86663 1.75341 9.16663 1.38675 9.16663ZM12.6734 4.49329C12.5001 4.49329 12.3334 4.42663 12.2001 4.29996C11.9401 4.03996 11.9401 3.61996 12.2001 3.35996L12.2867 3.27329C12.5467 3.01329 12.9667 3.01329 13.2267 3.27329C13.4867 3.53329 13.4867 3.95329 13.2267 4.21329L13.1401 4.29996C13.0134 4.42663 12.8467 4.49329 12.6734 4.49329ZM3.32675 4.49329C3.15341 4.49329 2.98675 4.42663 2.85342 4.29996L2.76675 4.20663C2.50675 3.94663 2.50675 3.52663 2.76675 3.26663C3.02675 3.00663 3.44675 3.00663 3.70675 3.26663L3.79341 3.35329C4.05341 3.61329 4.05341 4.03329 3.79341 4.29329C3.66675 4.42663 3.49341 4.49329 3.32675 4.49329ZM8.00008 2.52663C7.63341 2.52663 7.33342 2.25329 7.33342 1.88663V1.83329C7.33342 1.46663 7.63341 1.16663 8.00008 1.16663C8.36675 1.16663 8.66675 1.46663 8.66675 1.83329C8.66675 2.19996 8.36675 2.52663 8.00008 2.52663Z" fill="#28A745"/>
<path d="M13.3334 11H2.66675C2.39341 11 2.16675 10.7733 2.16675 10.5C2.16675 10.2267 2.39341 10 2.66675 10H13.3334C13.6067 10 13.8334 10.2267 13.8334 10.5C13.8334 10.7733 13.6067 11 13.3334 11Z" fill="#28A745"/>
<path d="M12 13H4C3.72667 13 3.5 12.7733 3.5 12.5C3.5 12.2267 3.72667 12 4 12H12C12.2733 12 12.5 12.2267 12.5 12.5C12.5 12.7733 12.2733 13 12 13Z" fill="#28A745"/>
<path d="M10 15H6C5.72667 15 5.5 14.7733 5.5 14.5C5.5 14.2267 5.72667 14 6 14H10C10.2733 14 10.5 14.2267 10.5 14.5C10.5 14.7733 10.2733 15 10 15Z" fill="#28A745"/>
</svg>
